<mxfile host="app.diagrams.net" agent="Mozilla/5.0 (Windows NT 10.0; Win64; x64; rv:128.0) Gecko/20100101 Firefox/128.0" version="27.1.6">
  <diagram name="Page-1" id="5wCCrMCGz2_fKdGjyEey">
    <mxGraphModel dx="1188" dy="655" grid="1" gridSize="10" guides="1" tooltips="1" connect="1" arrows="1" fold="1" page="1" pageScale="1" pageWidth="850" pageHeight="1100" math="0" shadow="0">
      <root>
        <mxCell id="0" />
        <mxCell id="1" parent="0" />
        <mxCell id="TaExUOb9A3CnNy5FOmea-11" value="" style="group" vertex="1" connectable="0" parent="1">
          <mxGeometry x="440" y="960" width="400" height="230" as="geometry" />
        </mxCell>
        <mxCell id="TaExUOb9A3CnNy5FOmea-9" value="" style="rounded=0;whiteSpace=wrap;html=1;" vertex="1" parent="TaExUOb9A3CnNy5FOmea-11">
          <mxGeometry width="400" height="230" as="geometry" />
        </mxCell>
        <mxCell id="TaExUOb9A3CnNy5FOmea-7" value="" style="rounded=0;whiteSpace=wrap;html=1;" vertex="1" parent="TaExUOb9A3CnNy5FOmea-11">
          <mxGeometry x="54.16666666666667" y="57.5" width="300" height="172.5" as="geometry" />
        </mxCell>
        <mxCell id="TaExUOb9A3CnNy5FOmea-3" value="" style="rounded=0;whiteSpace=wrap;html=1;" vertex="1" parent="TaExUOb9A3CnNy5FOmea-11">
          <mxGeometry x="96.25" y="115" width="216.66666666666669" height="115" as="geometry" />
        </mxCell>
        <mxCell id="TaExUOb9A3CnNy5FOmea-4" value="&lt;b&gt;&lt;font style=&quot;font-size: 24px;&quot;&gt;Application&lt;/font&gt;&lt;/b&gt;" style="text;html=1;align=center;verticalAlign=middle;whiteSpace=wrap;rounded=0;" vertex="1" parent="TaExUOb9A3CnNy5FOmea-11">
          <mxGeometry x="154.16666666666666" y="127.77777777777779" width="100" height="38.33333333333333" as="geometry" />
        </mxCell>
        <mxCell id="TaExUOb9A3CnNy5FOmea-6" value="" style="group" vertex="1" connectable="0" parent="TaExUOb9A3CnNy5FOmea-11">
          <mxGeometry x="144.16666666666669" y="172.5" width="120.83333333333334" height="57.5" as="geometry" />
        </mxCell>
        <mxCell id="TaExUOb9A3CnNy5FOmea-2" value="" style="rounded=0;whiteSpace=wrap;html=1;" vertex="1" parent="TaExUOb9A3CnNy5FOmea-6">
          <mxGeometry width="120.83333333333334" height="57.5" as="geometry" />
        </mxCell>
        <mxCell id="TaExUOb9A3CnNy5FOmea-5" value="&lt;b&gt;&lt;font style=&quot;font-size: 24px;&quot;&gt;Domain&lt;/font&gt;&lt;/b&gt;" style="text;html=1;align=center;verticalAlign=middle;whiteSpace=wrap;rounded=0;" vertex="1" parent="TaExUOb9A3CnNy5FOmea-6">
          <mxGeometry x="10.416666666666666" y="9.583333333333332" width="100" height="38.33333333333333" as="geometry" />
        </mxCell>
        <mxCell id="TaExUOb9A3CnNy5FOmea-8" value="&lt;b&gt;&lt;font style=&quot;font-size: 24px;&quot;&gt;Infrastructure&lt;/font&gt;&lt;/b&gt;" style="text;html=1;align=center;verticalAlign=middle;whiteSpace=wrap;rounded=0;" vertex="1" parent="TaExUOb9A3CnNy5FOmea-11">
          <mxGeometry x="133.33333333333334" y="70.27777777777777" width="141.66666666666669" height="38.33333333333333" as="geometry" />
        </mxCell>
        <mxCell id="TaExUOb9A3CnNy5FOmea-10" value="&lt;b&gt;&lt;font style=&quot;font-size: 24px;&quot;&gt;Presentation&lt;/font&gt;&lt;/b&gt;" style="text;html=1;align=center;verticalAlign=middle;whiteSpace=wrap;rounded=0;" vertex="1" parent="TaExUOb9A3CnNy5FOmea-11">
          <mxGeometry x="133.33333333333334" y="12.777777777777777" width="141.66666666666669" height="38.33333333333333" as="geometry" />
        </mxCell>
        <mxCell id="TaExUOb9A3CnNy5FOmea-12" value="&lt;font style=&quot;font-size: 24px;&quot;&gt;&lt;b&gt;Lakazhub Architecture&lt;br&gt;&lt;/b&gt;&lt;/font&gt;" style="text;html=1;align=center;verticalAlign=middle;whiteSpace=wrap;rounded=0;fontStyle=4" vertex="1" parent="1">
          <mxGeometry x="260" y="50" width="280" height="30" as="geometry" />
        </mxCell>
        <mxCell id="TaExUOb9A3CnNy5FOmea-23" value="&lt;h1 style=&quot;margin-top: 0px;&quot;&gt;Overview&lt;br&gt;&lt;/h1&gt;&lt;p&gt;The system and business serves 3 primary users:&lt;/p&gt;&lt;p&gt;1. Owners - Official landlords of the property&lt;/p&gt;&lt;p&gt;2. Tenant - Those seeking to lease property from owners&lt;/p&gt;&lt;p&gt;3. Service providers - Those providing services to the property.&lt;/p&gt;&lt;p&gt;- Owners - responsible for leasing property &amp;amp; units in the system by having a dedicated dashboard for each of their property and related data that serves the purpose. &lt;br&gt;&lt;/p&gt;&lt;p&gt;- Tenants - responsible for renting out leased properties in the platform.&lt;/p&gt;&lt;p&gt;- Service providers - responsible for providing service or maintenance for the leased properties in the platform&lt;/p&gt;&lt;p&gt;&lt;br&gt;&lt;/p&gt;&lt;p&gt;&lt;br&gt;&lt;/p&gt;&lt;p&gt;&amp;nbsp; &lt;br&gt;&lt;/p&gt;&lt;br&gt;&lt;p&gt;&lt;br&gt;&lt;/p&gt;" style="text;html=1;whiteSpace=wrap;overflow=hidden;rounded=0;" vertex="1" parent="1">
          <mxGeometry x="70" y="140" width="330" height="340" as="geometry" />
        </mxCell>
        <mxCell id="TaExUOb9A3CnNy5FOmea-37" value="" style="group" vertex="1" connectable="0" parent="1">
          <mxGeometry x="420" y="130" width="380" height="350" as="geometry" />
        </mxCell>
        <mxCell id="TaExUOb9A3CnNy5FOmea-33" value="" style="group" vertex="1" connectable="0" parent="TaExUOb9A3CnNy5FOmea-37">
          <mxGeometry x="190" width="190" height="190" as="geometry" />
        </mxCell>
        <mxCell id="TaExUOb9A3CnNy5FOmea-25" value="" style="ellipse;whiteSpace=wrap;html=1;aspect=fixed;" vertex="1" parent="TaExUOb9A3CnNy5FOmea-33">
          <mxGeometry width="190" height="190" as="geometry" />
        </mxCell>
        <mxCell id="TaExUOb9A3CnNy5FOmea-28" value="&lt;b&gt;&lt;font style=&quot;font-size: 19px;&quot;&gt;Tenants&lt;/font&gt;&lt;/b&gt;" style="text;html=1;align=center;verticalAlign=middle;whiteSpace=wrap;rounded=0;" vertex="1" parent="TaExUOb9A3CnNy5FOmea-33">
          <mxGeometry x="50" y="80" width="90" height="30" as="geometry" />
        </mxCell>
        <mxCell id="TaExUOb9A3CnNy5FOmea-35" value="" style="group;fillColor=none;" vertex="1" connectable="0" parent="TaExUOb9A3CnNy5FOmea-37">
          <mxGeometry x="100" y="160" width="190" height="190" as="geometry" />
        </mxCell>
        <mxCell id="TaExUOb9A3CnNy5FOmea-26" value="" style="ellipse;whiteSpace=wrap;html=1;aspect=fixed;" vertex="1" parent="TaExUOb9A3CnNy5FOmea-35">
          <mxGeometry width="190" height="190" as="geometry" />
        </mxCell>
        <mxCell id="TaExUOb9A3CnNy5FOmea-27" value="&lt;b&gt;&lt;font style=&quot;font-size: 19px;&quot;&gt;&lt;font&gt;Service providers&lt;/font&gt;&lt;font&gt;&lt;br&gt;&lt;/font&gt;&lt;/font&gt;&lt;/b&gt;" style="text;html=1;align=center;verticalAlign=middle;whiteSpace=wrap;rounded=0;" vertex="1" parent="TaExUOb9A3CnNy5FOmea-35">
          <mxGeometry x="50" y="80" width="90" height="30" as="geometry" />
        </mxCell>
        <mxCell id="TaExUOb9A3CnNy5FOmea-36" value="" style="group" vertex="1" connectable="0" parent="TaExUOb9A3CnNy5FOmea-37">
          <mxGeometry width="190" height="190" as="geometry" />
        </mxCell>
        <mxCell id="TaExUOb9A3CnNy5FOmea-24" value="" style="ellipse;whiteSpace=wrap;html=1;aspect=fixed;labelBackgroundColor=default;" vertex="1" parent="TaExUOb9A3CnNy5FOmea-36">
          <mxGeometry width="190" height="190" as="geometry" />
        </mxCell>
        <mxCell id="TaExUOb9A3CnNy5FOmea-30" value="&lt;b&gt;Landlords&lt;/b&gt;" style="text;html=1;align=center;verticalAlign=middle;whiteSpace=wrap;rounded=0;fontSize=19;" vertex="1" parent="TaExUOb9A3CnNy5FOmea-36">
          <mxGeometry x="50" y="80" width="90" height="30" as="geometry" />
        </mxCell>
      </root>
    </mxGraphModel>
  </diagram>
</mxfile>
